<svg xmlns="http://www.w3.org/2000/svg" viewBox="0 0 514 514"><defs><style>.cls-1{fill:#e88b6b;}.cls-2{fill:#603813;}.cls-3{fill:#4c2b0f;}.cls-4{fill:#fedac6;}.cls-5{fill:#a02e7d;}.cls-6{fill:#f5c4b0;}.cls-7{fill:#892770;}.cls-11,.cls-13,.cls-8{fill:#fff;}.cls-11,.cls-12,.cls-13,.cls-9{stroke:#000;}.cls-10,.cls-11,.cls-12,.cls-13,.cls-9{stroke-miterlimit:10;}.cls-9{stroke-width:1.8px;}.cls-10,.cls-12,.cls-14{fill:none;}.cls-10{stroke:#f5c4b0;}.cls-10,.cls-12{stroke-width:7px;}.cls-11{stroke-width:2px;}.cls-13{stroke-width:3px;}</style></defs><title>Recurso 1</title><g id="Capa_2" data-name="Capa 2"><g id="Capa_1-2" data-name="Capa 1"><g id="Capa_2-2" data-name="Capa 2"><g id="Capa_1-2-2" data-name="Capa 1-2"><ellipse class="cls-1" cx="192.86" cy="194.82" rx="11.5" ry="22.23" transform="translate(-52.51 317.05) rotate(-71.77)"/><ellipse class="cls-1" cx="302.87" cy="194.79" rx="22.23" ry="11.5" transform="translate(-45.74 104.52) rotate(-18.23)"/><path class="cls-2" d="M344.84,130.63a29.08,29.08,0,0,0,2.79,1.15c7.91,2.81,15.87,2.17,21,1.2,4.78,26-15.51,49,0,75.8,6.63,11.5,16.11,17.28,15,28-1.24,12.06-15.77,18.36-24,25-12.07,9.73-38.35,30.93-76.83,39.4l-63.49.68c-19.15-3.64-43.87-11.81-66.68-30.08-29.29-23.46-33-34.3-33-39-.07-10.6,7.11-14.64,13-26,13.16-25.49-1.4-46.62-2.82-68.64a64.39,64.39,0,0,0,16.82,3.64,91.71,91.71,0,0,0,10.37.27Z"/><path class="cls-2" d="M394.63,115.18c-.59,9.61-19.13,15.43-21,16a46.67,46.67,0,0,1-5,1.2c-5.17,1-13.13,1.61-21-1.2a29.1,29.1,0,0,1-2.79-1.15C321,118.87,323.58,82.47,304.63,77.18c-11.55-3.23-18.71,7.94-45,26-4.59,3.16-55.3,37-102.63,38.27a91.71,91.71,0,0,1-10.37-.27,64.39,64.39,0,0,1-16.82-3.64,52.15,52.15,0,0,1-16.18-9.36c-3.77-3.24-11.12-9.55-10-16,1.35-7.76,13.71-8.6,25-16,16-10.48,12.48-22.78,25.5-42.55C175,22,216.33,4.08,252.63,4.18h3.65c33.53.89,72.18,16.58,91.85,46.21,11.86,17.85,6.28,25,20.5,39.74C381.7,103.78,395.14,106.86,394.63,115.18Z"/><path class="cls-3" d="M172.63,249.17c-.07-13.78,7.11-19,13-33.86,11.1-27.95,2.48-51.86-1.34-75.84L157,141.13a91.71,91.71,0,0,1-10.37-.27,64.39,64.39,0,0,1-16.82-3.64c1.42,22,16,43.15,2.82,68.64-5.89,11.4-13.07,15.44-13,26,0,4.7,3.71,15.54,33,39a147.82,147.82,0,0,0,50.25,26.07C176.11,268.47,172.66,255.08,172.63,249.17Z"/><path class="cls-4" d="M344.84,130.15c0,7-.11,14.5-.21,22.65-.59,49.45-1.11,74.57-12,93.5-2.79,4.85-31.63,53.18-81.75,52.5-47.26-.64-74.41-44.32-78.25-50.5-14.64-23.55-14.92-47.53-15.5-95.5q-.07-5.84-.13-11.23c47.33-1.25,98-35.11,102.63-38.27,26.29-18.06,33.45-29.23,45-26C323.58,82.6,321,119,344.84,130.15Z"/><path class="cls-5" d="M370.13,509.8c-26.08,0-220-1-237,0a.71.71,0,0,1-.29,0c-2.36-.41-2.67-17.15.29-31,3.27-15.32,6.22-18.43,9.64-24.08.86-1.42-51-19-67.64-24.92.11-4.23.37-10.06,1-17,.46-5,.9-9.83,2-16,1.84-10.28,2.79-15.63,6.31-22.07a66.86,66.86,0,0,1,8.69-11.93c3.76-4.3,9.79-11.8,29-14,35-4,70-4,70-4a101.67,101.67,0,0,0,9.5,24.5c2.76,5.06,5.78,10.59,10.5,15.5,16.85,17.56,43.81,15.22,46,15,6.19-.62,23.23-3.32,36-17a59.6,59.6,0,0,0,12.5-21.5c3.4-10.4,1-3,3-16,.46-3,32-.68,74.5,4.5a42,42,0,0,1,24,12c3.51,3.42,8.81,8.23,12,21,7,28,7,47,7,47-20.41,7.78-68.83,18.93-68.18,22.69,0,.15.13.23.18.31a107.56,107.56,0,0,1,10,25C371.05,486.12,373.13,509.8,370.13,509.8Z"/><path class="cls-4" d="M75.63,428.3c-3.34,1.83-2,35-1,56,.86,18.1,1,25,2,25,4.57,0,7.71.2,27,0,19.7-.21,28,0,28-2,0-10-.65-21.93,1-31,2-11,7-19,9-24,.63-1.56-7-3.82-11-5-10-3-19.79-6.13-35-12C76,427.74,77.85,427.09,75.63,428.3Z"/><path class="cls-4" d="M427.53,428.3c1.1,4,2,35,1,56-.86,18.1-1,25-2,25-4.57,0-7.71.2-27,0-19.7-.21-28,0-28-2,0-10,.65-21.93-1-31-2-11-7.9-21-9.9-26-.63-1.56,8-3.82,12-5,10-3,19.08-4.76,34.9-10C422.63,430.3,426.86,425.86,427.53,428.3Z"/><path class="cls-4" d="M194.63,345.91c0,5.71,2.5,13.67,10,25.42,3.9,6.11,6.69,10.4,12,15a52.93,52.93,0,0,0,15,9,55.27,55.27,0,0,0,29,3c10.73-1.76,17.91-6.22,24-10,6.85-4.26,9.79-7.55,11-9s3.14-4,7-12.68c5.38-12.11,6-17.43,6-20.71,0-1.88-9.66.44-16-2.82-3.68-1.9-6.24-5.59-7-11.3-3-22.6-2-31.07-2-39.55,0-.94-14.26,5.69-32,5.65-17.94,0-33-7.53-33-6.59,0,20.8-.49,42-4,46.14-4,4.71-7,5.65-7,5.65C200.67,344.14,194.63,344,194.63,345.91Z"/><path class="cls-6" d="M203.63,237.74c-14.18-25.32-14.89-51.08-15.45-101.05A134.31,134.31,0,0,1,157,141.6q.06,5.4.13,11.23c.58,48,.86,72,15.5,95.5,3.84,6.18,31,49.86,78.25,50.5a76.22,76.22,0,0,0,28.42-5.09C233.63,291.32,207.4,244.48,203.63,237.74Z"/><path class="cls-6" d="M260.63,315.3c10.07-1.65,17-5.68,22.86-9.29-.09-5.63.14-9.7.14-13.77,0-.94-14.26,5.69-32,5.65-17.94,0-33-7.53-33-6.59,0,4.56,0,9.14-.1,13.56a53.42,53.42,0,0,0,13.1,7.45A55.27,55.27,0,0,0,260.63,315.3Z"/><path class="cls-3" d="M187.66,70.88c.21-.8.54-2,1-3.51,6.5-22,20.32-44.52,39.18-60.2-28.59,6.16-56.7,22.32-72.71,46.64-13,19.77-9.52,32.07-25.5,42.55-11.29,7.4-23.65,8.24-25,16-1.12,6.45,6.23,12.76,10,16a52.15,52.15,0,0,0,16.18,9.36,64.39,64.39,0,0,0,16.82,3.64,91.71,91.71,0,0,0,10.37.27A133.13,133.13,0,0,0,188.09,137,128.85,128.85,0,0,1,187.66,70.88Z"/><path class="cls-7" d="M119,348.28c-16.47,2.66-22,9.49-25.5,13.52a66.86,66.86,0,0,0-8.69,11.93c-3.52,6.44-4.48,11.79-6.31,22.07-1.1,6.17-1.54,11-2,16-.63,6.94-.89,12.77-1,17,8.9,3.18,27.89,9.69,43.5,15.27Z"/><path class="cls-6" d="M117,441.76c-5.23-1.79-11-3.9-18-6.58-19.59-7.56-17.78-8.21-20-7-3.34,1.83-2,35-1,56,.86,18.1,1,25,2,25,4.57,0,7.71.2,27,0l10-.09Z"/><path class="cls-7" d="M153.13,492.8c.46-5,.9-9.83,2-16,1.84-10.28,2.79-15.63,6.31-22.07a66.86,66.86,0,0,1,8.69-11.93c.86-1,1.84-2.13,3.07-3.35-14,2.66-24.94,11.49-30.19,16.51-3.1,4.94-5.86,8.67-8.87,22.84-3,13.87-2.65,30.61-.29,31a.71.71,0,0,0,.29,0c2.51-.15,8.89-.25,18-.32C152.25,505.28,152.51,499.6,153.13,492.8Z"/><ellipse class="cls-8" cx="194.42" cy="158.8" rx="17.12" ry="17.5"/><ellipse class="cls-9" cx="193.85" cy="158.8" rx="10.27" ry="10.5"/><ellipse class="cls-8" cx="303.42" cy="159.8" rx="17.12" ry="17.5"/><ellipse class="cls-9" cx="302.85" cy="159.8" rx="10.27" ry="10.5"/><path class="cls-10" d="M260,197.68H243.63c-1,0-3,0-4-1s-.3-3.15,0-4c1.36-3.94,7.07-20,15-42"/><ellipse class="cls-11" cx="188" cy="155.07" rx="5.75" ry="2.88" transform="translate(-49.64 209.07) rotate(-52.32)"/><ellipse class="cls-11" cx="297" cy="156.07" rx="5.75" ry="2.88" transform="translate(-8.06 295.73) rotate(-52.32)"/><path class="cls-10" d="M226.83,233a56.45,56.45,0,0,0,46.85-1.39"/><ellipse class="cls-1" cx="194.86" cy="194.82" rx="11.5" ry="22.23" transform="translate(-51.14 318.96) rotate(-71.77)"/><ellipse class="cls-1" cx="304.86" cy="194.8" rx="22.23" ry="11.5" transform="translate(-45.64 105.15) rotate(-18.23)"/><path class="cls-8" d="M76.52,508.68l-2-.5h1.95C76.49,508.39,76.5,508.55,76.52,508.68Z"/><path class="cls-12" d="M283.25,291.56c-.05,10.22.58,22.27.91,27.12.87,13,2.41,16,4,18,5.05,6.32,14.13,6.74,22,7h.91c41.92,1.37,51.22,1,69.09,4s24.82,9.94,28,13c8.48,8.16,11.46,17.8,13,23,3.43,11.57,5.25,28,6.1,45.14,1.83,36.4-.64,76.11-1.1,79.86l-55.69,1-237-2-57,1H74"/><path class="cls-12" d="M76.54,509.18v-1a711.39,711.39,0,0,1-1-79.55c.86-17.09,2.67-33.42,6.09-45,1.54-5.2,4.52-14.84,13-23,3.18-3.06,10.09-10,28-13s27.3-2.59,70-4h1c7.64-.27,16.2-.9,21-7,1.59-2,3.13-5,4-18,.33-5,.58-18.11.32-28.75"/><path class="cls-12" d="M133.52,508.6a77.25,77.25,0,0,1,0-30,66.5,66.5,0,0,1,7-20c1.43-2.59,2.63-4.51,3.65-6.12,2.16-3.43,3.48-5.52,4.35-9.88,1-5,0-5,0-18"/><path class="cls-12" d="M370.49,508.6a77.25,77.25,0,0,0,0-30,66.5,66.5,0,0,0-7-20c-1.66-3-3-5.11-4.13-6.9a23.56,23.56,0,0,1-3.87-9.1c-1-5,0-5,0-18"/><polyline class="cls-12" points="144.52 452.61 144.17 452.49 75.43 429.06"/><polyline class="cls-12" points="359.52 451.61 427.28 429.25 427.85 429.06"/><path class="cls-12" d="M193.52,345.6c1.06,7.19,4.4,23.26,16.79,36,21.08,21.69,58.42,23.46,81.13,3,14.25-12.84,18.31-30.44,19.58-38"/><path class="cls-12" d="M345.25,131c0,7-.11,14.5-.21,22.65-.59,49.45-1.11,74.57-12,93.5-2.79,4.85-31.65,53.18-81.79,52.5C204,299,176.84,255.28,173,249.1c-14.62-23.5-14.9-47.5-15.48-95.5q-.07-5.84-.13-11.23c47.33-1.25,98-35.11,102.63-38.27,26.29-18.06,33.45-29.23,45-26C324,83.39,321.39,119.79,345.25,131Z"/><ellipse class="cls-13" cx="194.81" cy="159.6" rx="17.12" ry="17.5"/><ellipse class="cls-9" cx="194.23" cy="159.6" rx="10.27" ry="10.5"/><ellipse class="cls-13" cx="303.81" cy="160.6" rx="17.12" ry="17.5"/><ellipse class="cls-9" cx="303.23" cy="160.6" rx="10.27" ry="10.5"/><path class="cls-12" d="M260,198.68H244c-1,0-3,0-4-1s-.3-3.15,0-4c1.36-3.94,7.07-20,15-42"/><ellipse class="cls-11" cx="188.39" cy="155.86" rx="5.75" ry="2.88" transform="translate(-50.12 209.69) rotate(-52.32)"/><ellipse class="cls-11" cx="297.39" cy="156.87" rx="5.75" ry="2.88" transform="translate(-8.54 296.35) rotate(-52.32)"/><path class="cls-12" d="M227.25,233.79a56.45,56.45,0,0,0,46.85-1.35"/><path class="cls-12" d="M345.25,131A29.08,29.08,0,0,0,348,132.1c7.91,2.81,15.87,2.17,21,1.2,4.78,26-15.51,49,0,75.8,6.63,11.5,16.11,17.28,15,28-1.24,12.06-15.77,18.36-24,25C348,271.83,321.69,293,283.21,301.5"/><path class="cls-12" d="M157.39,142.37A91.71,91.71,0,0,1,147,142.1a64.39,64.39,0,0,1-16.82-3.64c1.42,22,16,43.15,2.82,68.64-5.89,11.4-13.07,15.44-13,26,0,4.7,3.71,15.54,33,39,22.81,18.27,47.53,26.44,66.68,30.08"/><path class="cls-12" d="M395,115.63c-.59,9.61-19.13,15.43-21,16a46.67,46.67,0,0,1-5,1.2c-5.17,1-13.13,1.61-21-1.2a29.1,29.1,0,0,1-2.79-1.15C321.39,119.32,324,82.92,305,77.63c-11.55-3.23-18.71,7.94-45,26-4.59,3.16-55.3,37-102.63,38.27a91.71,91.71,0,0,1-10.37-.27A64.39,64.39,0,0,1,130.2,138,52.15,52.15,0,0,1,114,128.63c-3.77-3.24-11.12-9.55-10-16,1.35-7.76,13.71-8.6,25-16,16-10.5,12.48-22.78,25.5-42.5C175.37,22.45,216.72,4.58,253,4.68h3.65c33.53.89,72.18,16.58,91.85,46.21,11.86,17.85,6.28,25,20.5,39.74C382.09,104.23,395.53,107.31,395,115.63Z"/></g></g><rect class="cls-14" width="514" height="514"/></g></g></svg>