<svg xmlns="http://www.w3.org/2000/svg" width="49" height="49" viewBox="0 0 49 49">
  <g id="Grupo_44" data-name="Grupo 44" transform="translate(-729 -50)">
    <circle id="Elipse_5" data-name="Elipse 5" cx="24.5" cy="24.5" r="24.5" transform="translate(729 50)" fill="#eb5b78"/>
    <g id="telephone-handle-silhouette" transform="translate(739.99 61)">
      <path id="Trazado_111" data-name="Trazado 111" d="M25.955,20.147q-.11-.332-1.4-.979-.35-.2-1-.554t-1.173-.647q-.527-.3-.988-.572-.074-.055-.462-.323a5.19,5.19,0,0,0-.656-.4,1.209,1.209,0,0,0-.526-.129,1.533,1.533,0,0,0-.923.526,8.991,8.991,0,0,0-1.015,1.145,11.134,11.134,0,0,1-.978,1.145,1.407,1.407,0,0,1-.85.526,1.256,1.256,0,0,1-.416-.092c-.166-.062-.292-.114-.379-.157s-.233-.129-.443-.259-.327-.2-.351-.212a19.406,19.406,0,0,1-4.34-3.213,19.4,19.4,0,0,1-3.213-4.34q-.018-.037-.212-.351t-.259-.443a4,4,0,0,1-.157-.379,1.25,1.25,0,0,1-.092-.416,1.407,1.407,0,0,1,.526-.85A11.122,11.122,0,0,1,7.794,8.2,8.987,8.987,0,0,0,8.939,7.183a1.533,1.533,0,0,0,.526-.923,1.206,1.206,0,0,0-.129-.526,5.134,5.134,0,0,0-.4-.656q-.268-.388-.323-.462-.277-.461-.572-.988T7.4,2.456q-.351-.646-.554-1Q6.2.166,5.864.056A1.034,1.034,0,0,0,5.476,0a6.084,6.084,0,0,0-1.3.185A7.313,7.313,0,0,0,2.909.573,4.95,4.95,0,0,0,.952,2.825,7.16,7.16,0,0,0,.01,6.26a7.132,7.132,0,0,0,.065.97A7.967,7.967,0,0,0,.306,8.291q.166.591.268.877t.379,1.025q.277.739.332.9A16.727,16.727,0,0,0,2.817,14.33,27.381,27.381,0,0,0,6.8,19.214a27.393,27.393,0,0,0,4.885,3.98,16.753,16.753,0,0,0,3.232,1.533q.166.055.9.333t1.025.379q.286.1.877.268a8.039,8.039,0,0,0,1.062.231,6.85,6.85,0,0,0,4.4-.877A4.947,4.947,0,0,0,25.438,23.1a7.273,7.273,0,0,0,.388-1.265,6.071,6.071,0,0,0,.185-1.3A1.03,1.03,0,0,0,25.955,20.147Z" transform="translate(0)" fill="#fff"/>
    </g>
  </g>
</svg>
