<svg xmlns="http://www.w3.org/2000/svg" width="150" height="150" viewBox="0 0 150 150">
  <g id="Grupo_37" data-name="Grupo 37" transform="translate(-1103 -2747)">
    <circle id="Elipse_24" data-name="Elipse 24" cx="75" cy="75" r="75" transform="translate(1103 2747)" fill="#ff7272"/>
    <g id="hand" transform="translate(1130 2772)">
      <path id="Trazado_32" data-name="Trazado 32" d="M170.556,25.434a2.969,2.969,0,0,0-1.975.752,2.98,2.98,0,1,0-1.975,5.21l.036,0v8.9h3.878v-8.9l.035,0a2.981,2.981,0,0,0,0-5.961Zm0,0" transform="translate(-131.347 -20.416)" fill="#d8e6f0"/>
      <path id="Trazado_33" data-name="Trazado 33" d="M121.951,24.57l-7.122,22v11.5a6.2,6.2,0,0,1-6.2,6.2h-1.483v35.25H72.768V64.269H68.53a4.3,4.3,0,0,1-3.525-1.836L49.081,39.674a2.86,2.86,0,0,1,.705-3.985L51.2,34.7a8.242,8.242,0,0,1,7.582-.982l0,0q.343.124.673.28l0,0c.221.1.438.217.65.341,0,0,0,0,0,0a8.2,8.2,0,0,1,2.577,2.383l4.852,6.934h0l.791,1.134h3.213L71.5,19.361a1.368,1.368,0,0,1,1.366-1.369h6.7a1.368,1.368,0,0,1,1.367,1.367V33.888c0,.02,0,.038,0,.055s0,.052,0,.076a2.008,2.008,0,0,0,4.012-.131V4.718A4.717,4.717,0,0,1,87.663.447c.071-.034.144-.065.217-.095l.035-.014c.071-.029.144-.057.215-.081S88.292.2,88.376.18s.164-.045.249-.063S88.78.084,88.86.07L88.89.064c.081-.014.164-.024.247-.034s.173-.018.262-.022S89.578,0,89.666,0a4.715,4.715,0,0,1,4.715,4.717v29.17a.429.429,0,0,0,0,.055c0,.025,0,.052,0,.076a2.008,2.008,0,0,0,4.012-.131v-21.8a4.717,4.717,0,0,1,2.713-4.271c.075-.035.154-.069.23-.1s.158-.061.237-.089.162-.053.245-.077.163-.043.248-.063a4.349,4.349,0,0,1,.512-.086c.087-.01.173-.018.263-.022s.177-.008.267-.008a4.717,4.717,0,0,1,4.717,4.717V34.527a1.37,1.37,0,0,0,2.656.472l3.9-13.2a4.012,4.012,0,0,1,1.777-2.108,3.627,3.627,0,0,1,.35-.177c.037-.018.076-.034.116-.052.071-.028.14-.055.211-.079l.119-.04c.024-.008.047-.015.071-.022l.1-.028a3.8,3.8,0,0,1,.515-.1c.04-.006.079-.01.119-.014l.1-.01c.034,0,.069-.005.1-.005a4.026,4.026,0,0,1,3.983,5.408Zm0,0" transform="translate(-38.984 0)" fill="#bfea92"/>
      <g id="Grupo_16" data-name="Grupo 16" transform="translate(14.937 0)">
        <path id="Trazado_34" data-name="Trazado 34" d="M249.484,4.717V33.888a2.006,2.006,0,0,0,4.01.109c0-.036-.005-.072-.005-.109V4.717A4.717,4.717,0,0,0,246.769.446a4.716,4.716,0,0,1,2.715,4.27Zm0,0" transform="translate(-213.027 0)" fill="#9bc66a"/>
        <path id="Trazado_35" data-name="Trazado 35" d="M186.792,92.577v14.529a2.006,2.006,0,0,0,4.01.109c0-.036-.005-.072-.005-.109V92.577a1.366,1.366,0,0,0-1.366-1.366h-4.005a1.367,1.367,0,0,1,1.367,1.366Zm0,0" transform="translate(-163.784 -73.218)" fill="#9bc66a"/>
        <path id="Trazado_36" data-name="Trazado 36" d="M90.131,179.945H86.125l-5.646-8.069a8.21,8.21,0,0,0-4.761-3.272,8.305,8.305,0,0,1,4.862.26l0,0c.227.082.452.178.673.28l0,0c.221.1.436.22.65.342,0,0,0,0,0,0a8.232,8.232,0,0,1,2.577,2.383l4.852,6.935h0Zm0,0" transform="translate(-75.719 -135.147)" fill="#9bc66a"/>
        <path id="Trazado_37" data-name="Trazado 37" d="M341.632,97.348a4.018,4.018,0,0,0-3.391.29,4.027,4.027,0,0,1,1.782,4.878l-7.124,22v11.5a6.2,6.2,0,0,1-6.2,6.2h-.844a.637.637,0,0,0-.638.638v34.612h4v-35.25H330.7a6.2,6.2,0,0,0,6.2-6.2v-11.5l7.124-22a4.028,4.028,0,0,0-2.4-5.168Zm0,0" transform="translate(-275.997 -77.947)" fill="#9bc66a"/>
        <path id="Trazado_38" data-name="Trazado 38" d="M316.948,37.371a4.7,4.7,0,0,0-2,.446,4.715,4.715,0,0,1,2.714,4.27V64.934a2,2,0,1,0,4.005,0V42.088a4.717,4.717,0,0,0-4.717-4.717Zm0,0" transform="translate(-267.754 -29.999)" fill="#9bc66a"/>
        <path id="Trazado_39" data-name="Trazado 39" d="M180.819,227.848a1.481,1.481,0,0,0,1.481-1.481V224.4a12.468,12.468,0,0,0-12.454-12.454h-4.808l.005,2.962h4.8a9.5,9.5,0,0,1,9.492,9.492v1.963a1.481,1.481,0,0,0,1.481,1.481Zm0,0" transform="translate(-147.419 -170.139)" fill="#9bc66a"/>
      </g>
      <path id="Trazado_40" data-name="Trazado 40" d="M133.966,426.969H62.817A9.926,9.926,0,0,1,77.129,416.53a16.093,16.093,0,0,1,29.364,1.96,32.3,32.3,0,0,1,6.319-.62c9.012,0,16.887,3.653,21.154,9.1Zm0,0" transform="translate(-50.321 -327.45)" fill="#b78358"/>
      <path id="Trazado_41" data-name="Trazado 41" d="M191.863,417.81a2.539,2.539,0,0,0,2.612,1.366,32.5,32.5,0,0,1,4.434-.3c8.447,0,15.9,3.209,20.311,8.1h8.032c-4.267-5.446-12.143-9.1-21.154-9.1a32.3,32.3,0,0,0-6.319.62,16.1,16.1,0,0,0-20.881-9.5,16.1,16.1,0,0,1,12.965,8.822Zm0,0" transform="translate(-143.608 -327.453)" fill="#935d38"/>
      <path id="Trazado_42" data-name="Trazado 42" d="M280.4,339.172a1.481,1.481,0,0,1-1.481-1.481v-8.9a1.481,1.481,0,1,1,2.962,0v8.9A1.482,1.482,0,0,1,280.4,339.172Zm0,0" transform="translate(-223.9 -262.745)" fill="#9bc66a"/>
      <path id="Trazado_43" data-name="Trazado 43" d="M239.011,352.6a1.481,1.481,0,0,1-1.48-1.481v-5.6a1.481,1.481,0,1,1,2.961,0v5.6A1.481,1.481,0,0,1,239.011,352.6Zm0,0" transform="translate(-190.674 -276.175)" fill="#9bc66a"/>
      <path id="Trazado_44" data-name="Trazado 44" d="M54.437,180.849a2.6,2.6,0,0,0,.447-3.405l-2.818-4.21a8.228,8.228,0,0,0-.863.526l-1.414.989a2.862,2.862,0,0,0-.7,3.985l2.951,4.218Zm0,0" transform="translate(-38.987 -139.061)" fill="#e6eff5"/>
      <path id="Trazado_45" data-name="Trazado 45" d="M94.53,499.946H1.481a1.481,1.481,0,1,1,0-2.962H94.53a1.481,1.481,0,1,1,0,2.962Zm0,0" transform="translate(0 -398.946)" fill="#935d38"/>
    </g>
  </g>
</svg>
