<svg xmlns="http://www.w3.org/2000/svg" width="150" height="150" viewBox="0 0 150 150">
  <g id="Grupo_40" data-name="Grupo 40" transform="translate(-449 -2747)">
    <circle id="Elipse_21" data-name="Elipse 21" cx="75" cy="75" r="75" transform="translate(449 2747)" fill="#ff7272"/>
    <g id="curriculum" transform="translate(419.936 2771)">
      <path id="Trazado_5" data-name="Trazado 5" d="M122.786,0H67.724a1.66,1.66,0,0,0-1.66,1.66v99.594a1.66,1.66,0,0,0,1.66,1.66H140.76a1.66,1.66,0,0,0,1.66-1.66V19.634a3.321,3.321,0,0,0-.972-2.348L125.133.973A3.319,3.319,0,0,0,122.786,0Z" fill="#edebed"/>
      <path id="Trazado_6" data-name="Trazado 6" d="M148.685,341.9h-6.64a1.66,1.66,0,1,1,0-3.32h6.64a1.66,1.66,0,1,1,0,3.32Z" transform="translate(-59.383 -270.525)" fill="#afd755"/>
      <path id="Trazado_7" data-name="Trazado 7" d="M237.99,341.9H208.112a1.66,1.66,0,1,1,0-3.32H237.99a1.66,1.66,0,0,1,0,3.32Z" transform="translate(-112.17 -270.525)" fill="#6f6571"/>
      <path id="Trazado_8" data-name="Trazado 8" d="M148.685,374.933h-6.64a1.66,1.66,0,1,1,0-3.32h6.64a1.66,1.66,0,0,1,0,3.32Z" transform="translate(-59.383 -296.917)" fill="#bee86e"/>
      <path id="Trazado_9" data-name="Trazado 9" d="M237.99,374.933H208.112a1.66,1.66,0,0,1,0-3.32H237.99a1.66,1.66,0,0,1,0,3.32Z" transform="translate(-112.17 -296.917)" fill="#867e88"/>
      <path id="Trazado_10" data-name="Trazado 10" d="M148.685,407.965h-6.64a1.66,1.66,0,1,1,0-3.32h6.64a1.66,1.66,0,1,1,0,3.32Z" transform="translate(-59.383 -323.31)" fill="#afd755"/>
      <path id="Trazado_11" data-name="Trazado 11" d="M237.99,407.965H208.112a1.66,1.66,0,1,1,0-3.32H237.99a1.66,1.66,0,1,1,0,3.32Z" transform="translate(-112.17 -323.31)" fill="#6f6571"/>
      <path id="Trazado_12" data-name="Trazado 12" d="M148.685,441h-6.64a1.66,1.66,0,1,1,0-3.32h6.64a1.66,1.66,0,1,1,0,3.32Z" transform="translate(-59.383 -349.703)" fill="#bee86e"/>
      <path id="Trazado_13" data-name="Trazado 13" d="M237.99,441H208.112a1.66,1.66,0,1,1,0-3.32H237.99a1.66,1.66,0,0,1,0,3.32Z" transform="translate(-112.17 -349.703)" fill="#867e88"/>
      <path id="Trazado_14" data-name="Trazado 14" d="M372.383,18.514,356.069,2.2a3.31,3.31,0,0,0-.972-.664v16.29a1.66,1.66,0,0,0,1.66,1.66h16.29A3.312,3.312,0,0,0,372.383,18.514Z" transform="translate(-230.936 -1.227)" fill="#dbd9dc"/>
      <circle id="Elipse_19" data-name="Elipse 19" cx="23.238" cy="23.238" r="23.238" transform="translate(81.004 11.62)" fill="#bee86e"/>
      <path id="Trazado_15" data-name="Trazado 15" d="M170.265,112.875a23.227,23.227,0,0,1-19.407-36.006,23.232,23.232,0,1,0,32.174,32.174A23.116,23.116,0,0,1,170.265,112.875Z" transform="translate(-59.384 -61.418)" fill="#afd755"/>
      <path id="Trazado_16" data-name="Trazado 16" d="M209.722,200.637l-6.289-3.144a3.32,3.32,0,0,1-1.835-2.969v-4.588h-9.959v4.588a3.32,3.32,0,0,1-1.835,2.969l-6.289,3.144a3.32,3.32,0,0,0-1.835,2.969v.8a23.2,23.2,0,0,0,29.878,0v-.8A3.321,3.321,0,0,0,209.722,200.637Z" transform="translate(-92.376 -151.757)" fill="#b48764"/>
      <path id="Trazado_17" data-name="Trazado 17" d="M209.721,230.633l-6.289-3.145c-.442-.221-3.86,2.92-5.681,4.639a1.646,1.646,0,0,1-2.268,0c-1.821-1.72-5.239-4.86-5.681-4.639l-6.289,3.145a3.32,3.32,0,0,0-1.835,2.969v.8a23.2,23.2,0,0,0,29.878,0v-.8A3.321,3.321,0,0,0,209.721,230.633Z" transform="translate(-92.375 -181.754)" fill="#6f6571"/>
      <path id="Trazado_18" data-name="Trazado 18" d="M240.826,195.38a3.306,3.306,0,0,1-.12-.857v-4.588h-9.959v4.588a3.307,3.307,0,0,1-.12.857,11.479,11.479,0,0,0,10.2,0Z" transform="translate(-131.484 -151.757)" fill="#966d50"/>
      <path id="Trazado_19" data-name="Trazado 19" d="M214.71,123.871v8.3a8.3,8.3,0,1,0,16.6,0v-8.3Z" transform="translate(-118.768 -98.973)" fill="#c39772"/>
      <path id="Trazado_20" data-name="Trazado 20" d="M219.689,132.17v-8.3H214.71v8.3a8.3,8.3,0,0,0,8.3,8.3,8.206,8.206,0,0,0,2.49-.422A8.271,8.271,0,0,1,219.689,132.17Z" transform="translate(-118.768 -98.972)" fill="#b48764"/>
      <path id="Trazado_21" data-name="Trazado 21" d="M226.371,100.746V99.138a8.3,8.3,0,0,0-8.3-8.3h-3.32a8.3,8.3,0,0,0-8.3,8.3v1.289a1.664,1.664,0,0,0,2.227,1.564,11.431,11.431,0,0,0,3.6-2.1,1.627,1.627,0,0,1,1.8-.189,26.609,26.609,0,0,0,10.5,2.707A1.677,1.677,0,0,0,226.371,100.746Z" transform="translate(-112.17 -72.58)" fill="#6e4b53"/>
      <path id="Trazado_22" data-name="Trazado 22" d="M213.091,91.671a8.3,8.3,0,0,0-6.64,8.132v1.289a1.664,1.664,0,0,0,2.227,1.564,11.437,11.437,0,0,0,3.6-2.1,1.577,1.577,0,0,1,.813-.354Z" transform="translate(-112.169 -73.245)" fill="#5c414b"/>
    </g>
  </g>
</svg>
