<svg xmlns="http://www.w3.org/2000/svg" width="150" height="150" viewBox="0 0 150 150">
  <g id="Grupo_41" data-name="Grupo 41" transform="translate(-449 -2996)">
    <circle id="Elipse_26" data-name="Elipse 26" cx="75" cy="75" r="75" transform="translate(449 2996)" fill="#ff7272"/>
    <g id="map" transform="translate(473.678 3022)">
      <path id="Trazado_58" data-name="Trazado 58" d="M77.564,132.685c4.248,1.854,15.988,7.183,20.159,8.882.463.232,1.545.155,1.39-.85-.927-10.041-6.565-67.583-7.569-77.779-.155-1.468-.618-1.7-1.7-2.085C86.523,59.618,78.491,56.76,75.169,55.6a3.606,3.606,0,0,0-3.09,0C66.9,57.069,50.53,62.089,50.53,62.089s-17.07-5.175-22.4-6.643a3.618,3.618,0,0,0-3.09.077c-3.4,1.081-11.277,4.016-14.675,5.252a2.2,2.2,0,0,0-1.7,2.085C7.586,72.825,1.407,130.6.326,140.718c-.077,1.159.927,1.081,1.854.772,4.634-1.854,16.374-6.951,20.545-8.651a3.309,3.309,0,0,1,3.09,0c4.712,1.931,18.537,8.187,23.094,10.041a3.353,3.353,0,0,0,3.09,0c4.557-1.931,17.919-8.11,22.4-10.118A3.767,3.767,0,0,1,77.564,132.685Z" transform="translate(0 -44.325)" fill="#f4f0d3"/>
      <path id="Trazado_59" data-name="Trazado 59" d="M27.127,55.418a4.279,4.279,0,0,0-2.085.309c-3.4,1.081-11.277,4.016-14.675,5.252a2.2,2.2,0,0,0-1.7,2.085C7.586,73.028,1.407,130.8.326,140.92c-.077,1.159.927,1.081,1.854.772,4.634-1.854,16.374-6.951,20.545-8.651a3.365,3.365,0,0,1,2.008-.309S27.127,55.418,27.127,55.418Zm46.111,0a7.2,7.2,0,0,0-1,.309C67.059,57.271,51.3,62.06,50.608,62.292v81.1a4.127,4.127,0,0,0,1.545-.386c4.557-1.931,17.919-8.11,22.4-10.118a4.417,4.417,0,0,1,1.081-.309Z" transform="translate(0 -44.527)" fill="#e8e4c8"/>
      <path id="Trazado_60" data-name="Trazado 60" d="M63.008,149.744l13.517-13.517,13.748,13.748c2.858-1.313,5.638-2.626,7.878-3.63L48.8,97.068,72.74,73.124c-2.472-.772-5.716-1.7-8.805-2.626L43.081,91.352l-8.573-8.573c-.309,2.935-.7,6.488-1.081,10.427l37.383,37.383L55.13,146.269c2.163.927,5.02,2.163,7.878,3.476Z" transform="translate(-26.612 -56.672)" fill="#efc75e"/>
      <path id="Trazado_61" data-name="Trazado 61" d="M52.967,136.273l.386-11.817-10.273,10.2-8.573-8.5c-.309,2.935-.7,6.488-1.081,10.427l19,19,.309-11.2-3.862-3.862ZM77.143,180.3,90.2,193.352c2.858-1.313,5.638-2.626,7.878-3.63L77.143,168.79Z" transform="translate(-26.612 -100.049)" fill="#e3bd59"/>
      <path id="Trazado_62" data-name="Trazado 62" d="M223.6,0A22.432,22.432,0,0,1,246,22.476c0,.232-.077,6.025-2.008,10.118-4.557,10.582-15.525,21.781-19.155,25.411-.927.85-1.313,1-2.472-.077-3.707-3.63-14.521-14.675-19.078-25.18-1.622-3.09-2.085-9.732-2.085-10.273A22.432,22.432,0,0,1,223.6,0Z" transform="translate(-161.487)" fill="#e2574c"/>
      <path id="Trazado_63" data-name="Trazado 63" d="M267.929,55.138a11.586,11.586,0,1,0,11.586,11.586A11.57,11.57,0,0,0,267.929,55.138Zm0,18.537a6.951,6.951,0,1,1,6.951-6.951A6.923,6.923,0,0,1,267.929,73.675Z" transform="translate(-205.813 -44.325)" fill="#fff"/>
    </g>
  </g>
</svg>
