<svg xmlns="http://www.w3.org/2000/svg" width="150" height="150" viewBox="0 0 150 150">
  <g id="Grupo_42" data-name="Grupo 42" transform="translate(-667 -2996)">
    <circle id="Elipse_27" data-name="Elipse 27" cx="75" cy="75" r="75" transform="translate(667 2996)" fill="#ff7272"/>
    <g id="popcorn" transform="translate(692 2999.165)">
      <path id="Trazado_64" data-name="Trazado 64" d="M151.908,48.346c0,3.14-2.09,6.139-5.229,6.139V58.8H97.116V54.03A5.684,5.684,0,0,1,95.59,42.871a5.683,5.683,0,0,1,5.391-7.485c.057,0,.111,0,.166,0a5.769,5.769,0,0,1-.166-1.369,5.684,5.684,0,0,1,10.493-3.031,5.685,5.685,0,0,1,6.639-.412,5.683,5.683,0,0,1,11.279.616,5.684,5.684,0,0,1,7.837,3.115,5.684,5.684,0,1,1,7.21,8.64,5.682,5.682,0,0,1,7.47,5.395Z" transform="translate(-73.166 -0.002)" fill="#fddb87"/>
      <path id="Trazado_65" data-name="Trazado 65" d="M104.437,58.8v-.944a5.683,5.683,0,0,1-3.165-10.4,2.973,2.973,0,0,0,1.346-2.465V44.9a5.683,5.683,0,0,1,5.684-5.684c.057,0-.047-1.353.046-2.086a5.683,5.683,0,0,1,9.458-3.486,2.17,2.17,0,0,0,2.331.356,5.705,5.705,0,0,1,3.348-.363,2.584,2.584,0,0,0,2.685-1.219,5.709,5.709,0,0,1,2-1.97,1.306,1.306,0,0,0,.464-1.784,5.683,5.683,0,0,0-10.517,1.917,5.685,5.685,0,0,0-6.639.412,5.685,5.685,0,0,0-10.327,4.4c-.055,0-.109,0-.166,0a5.683,5.683,0,0,0-5.391,7.485,5.684,5.684,0,0,0,1.526,11.159V58.8h7.32Z" transform="translate(-73.166 0)" fill="#efba5b"/>
      <path id="Trazado_66" data-name="Trazado 66" d="M158.508,172.185v2.946l-.734,7.575-2.449,25.619-.039.055-1.757,18.166a4.453,4.453,0,0,1-4.436,4.061H106.644a4.452,4.452,0,0,1-4.436-4.054l-1.794-18.134L97.881,182.8l-.759-7.671v-2.946a5.2,5.2,0,0,1,4.929-5.236,5.117,5.117,0,0,1,5.3,5.113,5.115,5.115,0,1,1,10.231,0,5.115,5.115,0,1,1,10.231,0,5.115,5.115,0,1,1,10.231,0,5.115,5.115,0,1,1,10.231,0,5.117,5.117,0,0,1,5.3-5.113A5.2,5.2,0,0,1,158.508,172.185Z" transform="translate(-77.719 -112.919)" fill="#dddbc7"/>
      <path id="Trazado_67" data-name="Trazado 67" d="M131.369,218.983a4.453,4.453,0,0,1-4.436-4.054L125.14,196.8l-2.533-25.616-.417-4.208a5.115,5.115,0,0,0-4.6,5.09,5.115,5.115,0,0,0-10.231,0,5.117,5.117,0,0,0-5.3-5.113,5.2,5.2,0,0,0-4.929,5.236v2.947l.759,7.671,2.533,25.616,1.794,18.134a4.452,4.452,0,0,0,4.436,4.054H149.1a4.454,4.454,0,0,0,4.436-4.061l.731-7.561Z" transform="translate(-77.72 -112.919)" fill="#cec9a7"/>
      <path id="Trazado_68" data-name="Trazado 68" d="M338.54,230.607a4.453,4.453,0,0,0,4.436-4.061l1.758-18.166.039-.055,2.449-25.618.734-7.575v-2.946a5.2,5.2,0,0,0-4.929-5.236,5.117,5.117,0,0,0-5.3,5.113c0-.368-3.858,58.544-3.858,58.544Z" transform="translate(-267.165 -112.92)" fill="#ed3124"/>
      <g id="Grupo_17" data-name="Grupo 17" transform="translate(29.634 54.028)">
        <path id="Trazado_69" data-name="Trazado 69" d="M343.706,427.422h-9.08c-.448,6.835-.762,11.622-.762,11.622h4.674a4.453,4.453,0,0,0,4.436-4.06Z" transform="translate(-296.799 -375.385)" fill="#e00e0e"/>
        <path id="Trazado_70" data-name="Trazado 70" d="M151.731,230.611h8.647s-1.814-58.937-1.814-58.544a5.115,5.115,0,0,0-10.231,0C148.333,171.741,151.731,230.611,151.731,230.611Z" transform="translate(-148.333 -166.952)" fill="#e00e0e"/>
      </g>
      <path id="Trazado_71" data-name="Trazado 71" d="M257.132,231.18h-6.947s.114-58.937.114-58.544a5.115,5.115,0,1,1,10.231,0C260.53,172.31,257.132,231.18,257.132,231.18Z" transform="translate(-200.202 -113.38)" fill="#ed3124"/>
      <path id="Trazado_72" data-name="Trazado 72" d="M250.212,417.944c-.014,7.246-.025,12.68-.026,13.515h6.953c.044-.761.308-5.337.671-11.622h-3.958A4.447,4.447,0,0,1,250.212,417.944Z" transform="translate(-200.203 -313.773)" fill="#e00e0e"/>
      <path id="Trazado_73" data-name="Trazado 73" d="M135.277,250.761V269.75a3.011,3.011,0,0,1-3.01,3.01H99.921a.219.219,0,0,1-.189-.111L98.4,268.6a1.628,1.628,0,0,0-3.092,0l-1.332,4.051a.219.219,0,0,1-.189.111H61.441a3.011,3.011,0,0,1-3.01-3.01V250.761a3.011,3.011,0,0,1,3.01-3.01H93.553a1.411,1.411,0,0,1,1,.416l.909.914a1.964,1.964,0,0,0,2.783,0l.909-.914a1.411,1.411,0,0,1,1-.416h32.112A3.011,3.011,0,0,1,135.277,250.761Z" transform="translate(-46.758 -177.581)" fill="#ddd"/>
      <path id="Trazado_74" data-name="Trazado 74" d="M96.854,250.76a3,3,0,0,1,.216-1.115,1.959,1.959,0,0,1-1.607-.565l-.909-.914a1.411,1.411,0,0,0-1-.416H61.441a3.011,3.011,0,0,0-3.01,3.01v18.989a3.011,3.011,0,0,0,3.01,3.01H93.787a.219.219,0,0,0,.189-.111l1.332-4.051a1.6,1.6,0,0,1,1.546-1.119V250.76Z" transform="translate(-46.758 -177.58)" fill="#cccbc6"/>
      <path id="Trazado_75" data-name="Trazado 75" d="M115.3,275.882v10.636a1.956,1.956,0,0,1-1.958,1.958H91.113a1.956,1.956,0,0,1-1.957-1.958V275.882a1.956,1.956,0,0,1,1.957-1.958h22.231A1.956,1.956,0,0,1,115.3,275.882Z" transform="translate(-71.344 -198.525)" fill="#128ca0"/>
      <path id="Trazado_76" data-name="Trazado 76" d="M307.627,275.882v10.636a1.956,1.956,0,0,1-1.958,1.958H283.438a1.956,1.956,0,0,1-1.957-1.958V275.882a1.956,1.956,0,0,1,1.957-1.958h22.231A1.956,1.956,0,0,1,307.627,275.882Z" transform="translate(-225.246 -198.525)" fill="#ed3124"/>
      <path id="Trazado_77" data-name="Trazado 77" d="M113.343,273.924H91.113a1.958,1.958,0,0,0-1.958,1.958v1.146h11.793A11.447,11.447,0,0,1,112.4,288.475h.948a1.958,1.958,0,0,0,1.957-1.957V275.882A1.957,1.957,0,0,0,113.343,273.924Z" transform="translate(-71.343 -198.525)" fill="#00818e"/>
      <path id="Trazado_78" data-name="Trazado 78" d="M305.669,273.924H283.438a1.958,1.958,0,0,0-1.957,1.957v1.146h11.793a11.447,11.447,0,0,1,11.447,11.447h.948a1.958,1.958,0,0,0,1.957-1.957V275.882A1.957,1.957,0,0,0,305.669,273.924Z" transform="translate(-225.246 -198.525)" fill="#e00e0e"/>
      <path id="Trazado_79" data-name="Trazado 79" d="M193.452,97.705h-.037a1.545,1.545,0,0,1-1.28-.737,4.179,4.179,0,0,0-.317-.448,1.545,1.545,0,0,1,.493-2.35,4.136,4.136,0,0,0,2.134-2.7,1.545,1.545,0,0,1,2.35-.928,4.133,4.133,0,0,0,3.367.528,1.545,1.545,0,0,1,1.853,2.041,4.1,4.1,0,0,0-.252,1.093,1.545,1.545,0,0,1-2.1,1.3,4.139,4.139,0,0,0-4.931,1.529A1.546,1.546,0,0,1,193.452,97.705Zm-17.806-2.416a1.54,1.54,0,0,1-.495-.082,4.169,4.169,0,0,0-1.494-.214,1.545,1.545,0,0,1-1.545-1.978,4.14,4.14,0,0,0,.045-2.161,1.545,1.545,0,0,1,1.545-1.916l.054,0,.068,0A4.088,4.088,0,0,0,176.449,88a1.545,1.545,0,0,1,2.287.369q.049.078.1.153a1.545,1.545,0,0,1-.246,2.041,4.141,4.141,0,0,0-1.4,3.092l0,.064a1.546,1.546,0,0,1-1.545,1.565Z" transform="translate(-137.678 -49.468)" fill="#efba5b"/>
      <path id="Trazado_80" data-name="Trazado 80" d="M445.3,421.865a4.774,4.774,0,1,1-1.673,9.242,6,6,0,1,1-.1-8.9A4.772,4.772,0,0,1,445.3,421.865Z" transform="translate(-347.787 -316)" fill="#fddb87"/>
      <path id="Trazado_81" data-name="Trazado 81" d="M440.819,429.033a4.7,4.7,0,0,0,.682-3.41,4.765,4.765,0,0,1,1.737-3.685,6.775,6.775,0,1,0-.818,10.661A4.761,4.761,0,0,1,440.819,429.033Z" transform="translate(-347.787 -316)" fill="#efba5b"/>
      <path id="Trazado_82" data-name="Trazado 82" d="M340.712,421.08a4.774,4.774,0,1,1-7.718,5.352,6,6,0,1,1,6.217-6.365A4.771,4.771,0,0,1,340.712,421.08Z" transform="translate(-261.49 -311.561)" fill="#fddb87"/>
      <path id="Trazado_83" data-name="Trazado 83" d="M333.962,422.209a4.7,4.7,0,0,0,2.894-1.929,4.744,4.744,0,0,1,2.262-1.262,6.951,6.951,0,1,0-6.46,7.506A4.767,4.767,0,0,1,333.962,422.209Z" transform="translate(-261.489 -311.561)" fill="#efba5b"/>
      <path id="Trazado_84" data-name="Trazado 84" d="M15.46,425.5a4.763,4.763,0,0,1-.759,2.578,4.768,4.768,0,0,1-8.148,4.125,4.776,4.776,0,1,1-.1-8.9A4.773,4.773,0,0,1,15.46,425.5Z" transform="translate(0 -316.001)" fill="#fddb87"/>
      <path id="Trazado_85" data-name="Trazado 85" d="M6.141,430.9a4.765,4.765,0,0,1,6.448-4.467,4.793,4.793,0,0,1,2.666-2.313,4.773,4.773,0,0,0-8.807-.805,4.773,4.773,0,1,0-.1,8.973A4.777,4.777,0,0,1,6.141,430.9Z" transform="translate(0 -316.002)" fill="#efba5b"/>
    </g>
  </g>
</svg>
