<svg xmlns="http://www.w3.org/2000/svg" width="150" height="150" viewBox="0 0 150 150">
  <g id="Grupo_43" data-name="Grupo 43" transform="translate(-885 -2996)">
    <circle id="Elipse_28" data-name="Elipse 28" cx="75" cy="75" r="75" transform="translate(885 2996)" fill="#ff7272"/>
    <g id="film-roll" transform="translate(898.6 3019)">
      <g id="Grupo_14" data-name="Grupo 14" transform="translate(22.297 9.897)">
        <path id="Trazado_23" data-name="Trazado 23" d="M80.321,32.8a35.121,35.121,0,1,0,35.121,35.121A35.077,35.077,0,0,0,80.321,32.8Z" transform="translate(-45.2 -32.8)" fill="#263645"/>
        <path id="Trazado_24" data-name="Trazado 24" d="M233.366,286.831l10.621-8.328s-3.5-17.5-22.81-18.1L204.4,268C224.8,268.848,232.4,280.314,233.366,286.831Z" transform="translate(-156.366 -191.728)" fill="#263645"/>
      </g>
      <path id="Trazado_25" data-name="Trazado 25" d="M57.417,0a45.017,45.017,0,1,0,45.017,45.017A45.018,45.018,0,0,0,57.417,0ZM20.607,33.793a10.728,10.728,0,1,1,7.121,13.4A10.736,10.736,0,0,1,20.607,33.793ZM49.693,73.862A10.706,10.706,0,1,1,47.4,58.9,10.658,10.658,0,0,1,49.693,73.862Zm-2.9-56.6A10.741,10.741,0,1,1,57.538,28,10.765,10.765,0,0,1,46.8,17.259ZM79.624,76.517a10.747,10.747,0,1,1,2.655-14.966A10.7,10.7,0,0,1,79.624,76.517Zm7.483-29.086a10.693,10.693,0,1,1,7.241-13.276A10.676,10.676,0,0,1,87.107,47.431Z" fill="#e2e7ed"/>
      <g id="Grupo_15" data-name="Grupo 15" transform="translate(27.969 15.569)">
        <path id="Trazado_26" data-name="Trazado 26" d="M136.741,64.031a10.773,10.773,0,0,0,10.741-10.379A28.838,28.838,0,0,0,136.741,51.6,29.311,29.311,0,0,0,126,53.652,10.858,10.858,0,0,0,136.741,64.031Z" transform="translate(-107.293 -51.6)" fill="#364c63"/>
        <path id="Trazado_27" data-name="Trazado 27" d="M221.819,89.6a10.641,10.641,0,0,0-6.879,13.155,10.785,10.785,0,0,0,13.035,7.362,17,17,0,0,0,.121-2.414A29.372,29.372,0,0,0,221.819,89.6Z" transform="translate(-169.078 -78.134)" fill="#364c63"/>
        <path id="Trazado_28" data-name="Trazado 28" d="M183.945,191.032a10.729,10.729,0,0,0-2.776,14.6,29.629,29.629,0,0,0,17.5-12.31A10.7,10.7,0,0,0,183.945,191.032Z" transform="translate(-144.6 -147.584)" fill="#364c63"/>
        <path id="Trazado_29" data-name="Trazado 29" d="M94.324,190.034A10.655,10.655,0,0,0,79.6,192.085a29.286,29.286,0,0,0,17.259,12.672A10.984,10.984,0,0,0,94.324,190.034Z" transform="translate(-74.893 -146.827)" fill="#364c63"/>
        <path id="Trazado_30" data-name="Trazado 30" d="M77.155,102.076A10.758,10.758,0,0,0,70.4,88.8,29.346,29.346,0,0,0,64,107.024a13.118,13.118,0,0,0,.121,2.172A10.6,10.6,0,0,0,77.155,102.076Z" transform="translate(-64 -77.576)" fill="#364c63"/>
      </g>
      <circle id="Elipse_20" data-name="Elipse 20" cx="6.879" cy="6.879" r="6.879" transform="translate(50.538 38.138)" fill="#263645"/>
      <path id="Trazado_31" data-name="Trazado 31" d="M57.417,0a45.017,45.017,0,1,0,45.017,45.017A45.018,45.018,0,0,0,57.417,0Zm0,86.172A41.155,41.155,0,1,1,98.572,45.017,41.206,41.206,0,0,1,57.417,86.172Z" fill="#bfc4c8"/>
    </g>
  </g>
</svg>
