<svg xmlns="http://www.w3.org/2000/svg" width="150" height="150" viewBox="0 0 150 150">
  <g id="Grupo_39" data-name="Grupo 39" transform="translate(-667 -2747)">
    <circle id="Elipse_22" data-name="Elipse 22" cx="75" cy="75" r="75" transform="translate(667 2747)" fill="#ff7272"/>
    <g id="jigsaw" transform="translate(690.662 2774)">
      <path id="Trazado_47" data-name="Trazado 47" d="M387.771,355.224V335.851A6.506,6.506,0,0,0,385,330.524l-12.223-8.557a4.877,4.877,0,0,0-2.8-.881h-9.842L360.3,348.9a6.789,6.789,0,0,0,4.714,6.324Z" transform="translate(-289.145 -260.936)" fill="#fec9a3"/>
      <path id="Trazado_48" data-name="Trazado 48" d="M378.017,446.9h-11.38a6.5,6.5,0,0,1-6.5-6.5v-6.5h11.38Z" transform="translate(-289.145 -352.615)" fill="#fabd91"/>
      <path id="Trazado_49" data-name="Trazado 49" d="M46.606,11.38a8.108,8.108,0,0,0-3.251.686V0H14.093A9.753,9.753,0,0,0,4.339,9.754V39.016H16.4a8.128,8.128,0,1,1,14.884,0H43.355V26.952A8.128,8.128,0,1,0,46.606,11.38Z" transform="translate(-0.001)" fill="#88b337"/>
      <path id="Trazado_50" data-name="Trazado 50" d="M251.618,9.754A9.753,9.753,0,0,0,241.865,0H212.6V12.066a8.128,8.128,0,1,1,0,14.884V39.016h12.066a8.128,8.128,0,1,0,14.884,0h12.067V9.754Z" transform="translate(-169.249)" fill="#e8594a"/>
      <path id="Trazado_51" data-name="Trazado 51" d="M251.626,57.023c-9.292,12.927-26.067,20.27-39.016,24.222v4.111h12.066a8.128,8.128,0,1,0,14.884,0h12.066Z" transform="translate(-169.256 -46.341)" fill="#d65245"/>
      <path id="Trazado_52" data-name="Trazado 52" d="M40.1,171.832a8.108,8.108,0,0,1,3.251.686V158.826H31.289a8.128,8.128,0,1,0-14.884,0H4.339V188.09a9.753,9.753,0,0,0,9.754,9.754H43.355V187.4A8.128,8.128,0,1,1,40.1,171.832Z" transform="translate(-0.001 -119.811)" fill="#fdb62f"/>
      <path id="Trazado_53" data-name="Trazado 53" d="M4.338,330.469a9.753,9.753,0,0,0,9.754,9.754H43.354v-10.44A8.093,8.093,0,0,1,32,322.63a71.1,71.1,0,0,1-27.666,6.153v1.686Z" transform="translate(0 -262.191)" fill="#ffa719"/>
      <path id="Trazado_54" data-name="Trazado 54" d="M224.556,270.457l-10.286-27.474-11.3,4.254a8.138,8.138,0,1,1-13.934,5.249l-11.3,4.254,4.812,12.857a8.051,8.051,0,0,0-3.284.5,8.151,8.151,0,0,0,5.714,15.266,8.065,8.065,0,0,0,2.8-1.791l3.668,9.8,27.4-10.318A9.8,9.8,0,0,0,224.556,270.457Z" transform="translate(-137.935 -197.465)" fill="#4398d1"/>
      <path id="Trazado_55" data-name="Trazado 55" d="M221.947,314.012c-11.217,16.777-32.245,22.636-44.561,24.653a8.074,8.074,0,0,0,13.1,2.632l3.668,9.8,27.4-10.318a9.794,9.794,0,0,0,5.7-12.6Z" transform="translate(-140.631 -255.188)" fill="#3e8fc9"/>
      <path id="Trazado_56" data-name="Trazado 56" d="M46.606,53.489a8.108,8.108,0,0,0-3.251.686V51.816C31.182,63.022,14.69,69.21,4.339,72.226v8.9H16.4a8.128,8.128,0,1,1,14.884,0H43.355V69.061a8.128,8.128,0,1,0,3.251-15.572Z" transform="translate(-0.001 -42.109)" fill="#80a834"/>
      <path id="Trazado_57" data-name="Trazado 57" d="M373.762,385.428a4.024,4.024,0,1,0-5.747,5.633c.019.019.037.039.057.057l5.661,5.661a9.753,9.753,0,0,0,9.754,9.754h9.754v-1.626Z" transform="translate(-294.615 -312.245)" fill="#fec9a3"/>
    </g>
  </g>
</svg>
